<mxfile host="Electron" agent="Mozilla/5.0 (Windows NT 10.0; Win64; x64) AppleWebKit/537.36 (KHTML, like Gecko) draw.io/25.0.2 Chrome/128.0.6613.186 Electron/32.2.5 Safari/537.36" version="25.0.2">
  <diagram name="Page-1" id="QVJ4tlrpFVwbXdhHXeaO">
    <mxGraphModel dx="1434" dy="844" grid="1" gridSize="10" guides="1" tooltips="1" connect="1" arrows="1" fold="1" page="1" pageScale="1" pageWidth="850" pageHeight="1100" math="0" shadow="0">
      <root>
        <mxCell id="0" />
        <mxCell id="1" parent="0" />
        <mxCell id="Rsx-pt_HzqlwOgzSTHQl-33" value="" style="rounded=1;whiteSpace=wrap;html=1;fillColor=#fad9d5;strokeColor=#ae4132;" vertex="1" parent="1">
          <mxGeometry x="70" y="290" width="810" height="290" as="geometry" />
        </mxCell>
        <mxCell id="Rsx-pt_HzqlwOgzSTHQl-32" value="" style="rounded=1;whiteSpace=wrap;html=1;fillColor=#fad7ac;strokeColor=#b46504;" vertex="1" parent="1">
          <mxGeometry x="70" y="600" width="810" height="160" as="geometry" />
        </mxCell>
        <mxCell id="Rsx-pt_HzqlwOgzSTHQl-3" value="NE &quot;001&quot;&lt;div&gt;&lt;span style=&quot;font-size: 12pt; font-family: Calibri;&quot;&gt;192.168.1.1&lt;/span&gt;&lt;br&gt;&lt;/div&gt;" style="rounded=1;whiteSpace=wrap;html=1;fillColor=#1ba1e2;strokeColor=#006EAF;fontColor=#ffffff;" vertex="1" parent="1">
          <mxGeometry x="120" y="420" width="120" height="60" as="geometry" />
        </mxCell>
        <mxCell id="Rsx-pt_HzqlwOgzSTHQl-4" value="NE &quot;002&quot;&lt;div&gt;&lt;span style=&quot;font-size: 12pt; font-family: Calibri;&quot;&gt;192.168.1.2&lt;/span&gt;&lt;br&gt;&lt;/div&gt;" style="rounded=1;whiteSpace=wrap;html=1;fillColor=#1ba1e2;strokeColor=#006EAF;fontColor=#ffffff;" vertex="1" parent="1">
          <mxGeometry x="320" y="420" width="120" height="60" as="geometry" />
        </mxCell>
        <mxCell id="Rsx-pt_HzqlwOgzSTHQl-5" value="NE &quot;003&quot;&lt;div&gt;&lt;span style=&quot;font-size: 12pt; font-family: Calibri;&quot;&gt;192.168.1.3&lt;/span&gt;&lt;br&gt;&lt;/div&gt;" style="rounded=1;whiteSpace=wrap;html=1;fillColor=#1ba1e2;strokeColor=#006EAF;fontColor=#ffffff;" vertex="1" parent="1">
          <mxGeometry x="520" y="420" width="120" height="60" as="geometry" />
        </mxCell>
        <mxCell id="Rsx-pt_HzqlwOgzSTHQl-6" value="NE &quot;004&quot;&lt;div&gt;&lt;span style=&quot;font-size: 12pt; font-family: Calibri;&quot;&gt;192.168.1.4&lt;/span&gt;&lt;br&gt;&lt;/div&gt;" style="rounded=1;whiteSpace=wrap;html=1;fillColor=#1ba1e2;strokeColor=#006EAF;fontColor=#ffffff;" vertex="1" parent="1">
          <mxGeometry x="720" y="420" width="120" height="60" as="geometry" />
        </mxCell>
        <mxCell id="Rsx-pt_HzqlwOgzSTHQl-7" value="NE &quot;005&quot;&lt;div&gt;&lt;span style=&quot;font-size: 12pt; font-family: Calibri;&quot;&gt;192.168.1.5&lt;/span&gt;&lt;br&gt;&lt;/div&gt;" style="rounded=1;whiteSpace=wrap;html=1;fillColor=#1ba1e2;strokeColor=#006EAF;fontColor=#ffffff;" vertex="1" parent="1">
          <mxGeometry x="440" y="300" width="120" height="60" as="geometry" />
        </mxCell>
        <mxCell id="Rsx-pt_HzqlwOgzSTHQl-11" value="" style="endArrow=none;html=1;rounded=0;entryX=1;entryY=0.5;entryDx=0;entryDy=0;exitX=0;exitY=0.5;exitDx=0;exitDy=0;strokeWidth=3;fillColor=#0050ef;strokeColor=#001DBC;" edge="1" parent="1" source="Rsx-pt_HzqlwOgzSTHQl-4" target="Rsx-pt_HzqlwOgzSTHQl-3">
          <mxGeometry width="50" height="50" relative="1" as="geometry">
            <mxPoint x="130" y="620" as="sourcePoint" />
            <mxPoint x="180" y="570" as="targetPoint" />
          </mxGeometry>
        </mxCell>
        <mxCell id="Rsx-pt_HzqlwOgzSTHQl-12" value="" style="endArrow=none;html=1;rounded=0;entryX=0;entryY=0.5;entryDx=0;entryDy=0;exitX=1;exitY=0.5;exitDx=0;exitDy=0;strokeWidth=3;fillColor=#0050ef;strokeColor=#001DBC;" edge="1" parent="1" source="Rsx-pt_HzqlwOgzSTHQl-4" target="Rsx-pt_HzqlwOgzSTHQl-5">
          <mxGeometry width="50" height="50" relative="1" as="geometry">
            <mxPoint x="330" y="460" as="sourcePoint" />
            <mxPoint x="250" y="460" as="targetPoint" />
          </mxGeometry>
        </mxCell>
        <mxCell id="Rsx-pt_HzqlwOgzSTHQl-13" value="" style="endArrow=none;html=1;rounded=0;entryX=1;entryY=0.5;entryDx=0;entryDy=0;exitX=0;exitY=0.5;exitDx=0;exitDy=0;strokeWidth=3;fillColor=#0050ef;strokeColor=#001DBC;" edge="1" parent="1" source="Rsx-pt_HzqlwOgzSTHQl-6" target="Rsx-pt_HzqlwOgzSTHQl-5">
          <mxGeometry width="50" height="50" relative="1" as="geometry">
            <mxPoint x="450" y="460" as="sourcePoint" />
            <mxPoint x="530" y="460" as="targetPoint" />
          </mxGeometry>
        </mxCell>
        <mxCell id="Rsx-pt_HzqlwOgzSTHQl-14" value="" style="endArrow=none;html=1;rounded=0;entryX=0.5;entryY=0;entryDx=0;entryDy=0;exitX=0;exitY=0.5;exitDx=0;exitDy=0;strokeWidth=3;fillColor=#0050ef;strokeColor=#001DBC;" edge="1" parent="1" source="Rsx-pt_HzqlwOgzSTHQl-7" target="Rsx-pt_HzqlwOgzSTHQl-3">
          <mxGeometry width="50" height="50" relative="1" as="geometry">
            <mxPoint x="330" y="460" as="sourcePoint" />
            <mxPoint x="250" y="460" as="targetPoint" />
          </mxGeometry>
        </mxCell>
        <mxCell id="Rsx-pt_HzqlwOgzSTHQl-15" value="" style="endArrow=none;html=1;rounded=0;entryX=0.5;entryY=0;entryDx=0;entryDy=0;exitX=1;exitY=0.5;exitDx=0;exitDy=0;strokeWidth=3;fillColor=#0050ef;strokeColor=#001DBC;" edge="1" parent="1" source="Rsx-pt_HzqlwOgzSTHQl-7" target="Rsx-pt_HzqlwOgzSTHQl-6">
          <mxGeometry width="50" height="50" relative="1" as="geometry">
            <mxPoint x="450" y="340" as="sourcePoint" />
            <mxPoint x="190" y="430" as="targetPoint" />
          </mxGeometry>
        </mxCell>
        <mxCell id="Rsx-pt_HzqlwOgzSTHQl-16" value="NE &quot;006&quot;&lt;div&gt;&lt;span style=&quot;font-size: 12pt; font-family: Calibri;&quot;&gt;192.168.1.6&lt;/span&gt;&lt;br&gt;&lt;/div&gt;" style="rounded=1;whiteSpace=wrap;html=1;fillColor=#1ba1e2;strokeColor=#006EAF;fontColor=#ffffff;" vertex="1" parent="1">
          <mxGeometry x="120" y="560" width="120" height="60" as="geometry" />
        </mxCell>
        <mxCell id="Rsx-pt_HzqlwOgzSTHQl-17" value="NE &quot;007&quot;&lt;div&gt;&lt;span style=&quot;font-size: 12pt; font-family: Calibri;&quot;&gt;192.168.1.7&lt;/span&gt;&lt;br&gt;&lt;/div&gt;" style="rounded=1;whiteSpace=wrap;html=1;fillColor=#1ba1e2;strokeColor=#006EAF;fontColor=#ffffff;" vertex="1" parent="1">
          <mxGeometry x="120" y="680" width="120" height="60" as="geometry" />
        </mxCell>
        <mxCell id="Rsx-pt_HzqlwOgzSTHQl-18" value="NE &quot;008&quot;&lt;div&gt;&lt;span style=&quot;font-size: 12pt; font-family: Calibri;&quot;&gt;192.168.1.8&lt;/span&gt;&lt;br&gt;&lt;/div&gt;" style="rounded=1;whiteSpace=wrap;html=1;fillColor=#1ba1e2;strokeColor=#006EAF;fontColor=#ffffff;" vertex="1" parent="1">
          <mxGeometry x="320" y="680" width="120" height="60" as="geometry" />
        </mxCell>
        <mxCell id="Rsx-pt_HzqlwOgzSTHQl-19" value="NE &quot;009&quot;&lt;div&gt;&lt;span style=&quot;font-size: 12pt; font-family: Calibri;&quot;&gt;192.168.1.9&lt;/span&gt;&lt;br&gt;&lt;/div&gt;" style="rounded=1;whiteSpace=wrap;html=1;fillColor=#1ba1e2;strokeColor=#006EAF;fontColor=#ffffff;" vertex="1" parent="1">
          <mxGeometry x="520" y="680" width="120" height="60" as="geometry" />
        </mxCell>
        <mxCell id="Rsx-pt_HzqlwOgzSTHQl-20" value="NE &quot;010&quot;&lt;div&gt;&lt;span style=&quot;font-size: 12pt; font-family: Calibri;&quot;&gt;192.168.1.10&lt;/span&gt;&lt;br&gt;&lt;/div&gt;" style="rounded=1;whiteSpace=wrap;html=1;fillColor=#1ba1e2;strokeColor=#006EAF;fontColor=#ffffff;" vertex="1" parent="1">
          <mxGeometry x="720" y="680" width="120" height="60" as="geometry" />
        </mxCell>
        <mxCell id="Rsx-pt_HzqlwOgzSTHQl-21" value="NE &quot;011&quot;&lt;div&gt;&lt;span style=&quot;font-size: 12pt; font-family: Calibri;&quot;&gt;192.168.1.11&lt;/span&gt;&lt;br&gt;&lt;/div&gt;" style="rounded=1;whiteSpace=wrap;html=1;fillColor=#1ba1e2;strokeColor=#006EAF;fontColor=#ffffff;" vertex="1" parent="1">
          <mxGeometry x="720" y="560" width="120" height="60" as="geometry" />
        </mxCell>
        <mxCell id="Rsx-pt_HzqlwOgzSTHQl-22" value="" style="endArrow=none;html=1;rounded=0;entryX=0.5;entryY=1;entryDx=0;entryDy=0;exitX=0.5;exitY=0;exitDx=0;exitDy=0;strokeWidth=3;fillColor=#0050ef;strokeColor=#001DBC;" edge="1" parent="1" source="Rsx-pt_HzqlwOgzSTHQl-16" target="Rsx-pt_HzqlwOgzSTHQl-3">
          <mxGeometry width="50" height="50" relative="1" as="geometry">
            <mxPoint x="450" y="340" as="sourcePoint" />
            <mxPoint x="190" y="430" as="targetPoint" />
          </mxGeometry>
        </mxCell>
        <mxCell id="Rsx-pt_HzqlwOgzSTHQl-23" value="" style="endArrow=none;html=1;rounded=0;exitX=0.5;exitY=0;exitDx=0;exitDy=0;strokeWidth=3;fillColor=#0050ef;strokeColor=#001DBC;" edge="1" parent="1" source="Rsx-pt_HzqlwOgzSTHQl-17">
          <mxGeometry width="50" height="50" relative="1" as="geometry">
            <mxPoint x="190" y="570" as="sourcePoint" />
            <mxPoint x="180" y="620" as="targetPoint" />
          </mxGeometry>
        </mxCell>
        <mxCell id="Rsx-pt_HzqlwOgzSTHQl-24" value="" style="endArrow=none;html=1;rounded=0;strokeWidth=3;fillColor=#0050ef;strokeColor=#001DBC;entryX=0;entryY=0.5;entryDx=0;entryDy=0;" edge="1" parent="1" source="Rsx-pt_HzqlwOgzSTHQl-17" target="Rsx-pt_HzqlwOgzSTHQl-18">
          <mxGeometry width="50" height="50" relative="1" as="geometry">
            <mxPoint x="190" y="690" as="sourcePoint" />
            <mxPoint x="190" y="630" as="targetPoint" />
          </mxGeometry>
        </mxCell>
        <mxCell id="Rsx-pt_HzqlwOgzSTHQl-25" value="" style="endArrow=none;html=1;rounded=0;strokeWidth=3;fillColor=#0050ef;strokeColor=#001DBC;entryX=1;entryY=0.5;entryDx=0;entryDy=0;exitX=0;exitY=0.5;exitDx=0;exitDy=0;" edge="1" parent="1" source="Rsx-pt_HzqlwOgzSTHQl-19" target="Rsx-pt_HzqlwOgzSTHQl-18">
          <mxGeometry width="50" height="50" relative="1" as="geometry">
            <mxPoint x="250" y="720" as="sourcePoint" />
            <mxPoint x="330" y="720" as="targetPoint" />
          </mxGeometry>
        </mxCell>
        <mxCell id="Rsx-pt_HzqlwOgzSTHQl-27" value="" style="endArrow=none;html=1;rounded=0;strokeWidth=3;fillColor=#0050ef;strokeColor=#001DBC;entryX=1;entryY=0.5;entryDx=0;entryDy=0;exitX=0;exitY=0.5;exitDx=0;exitDy=0;" edge="1" parent="1" source="Rsx-pt_HzqlwOgzSTHQl-20" target="Rsx-pt_HzqlwOgzSTHQl-19">
          <mxGeometry width="50" height="50" relative="1" as="geometry">
            <mxPoint x="530" y="720" as="sourcePoint" />
            <mxPoint x="450" y="720" as="targetPoint" />
          </mxGeometry>
        </mxCell>
        <mxCell id="Rsx-pt_HzqlwOgzSTHQl-29" value="" style="endArrow=none;html=1;rounded=0;strokeWidth=3;fillColor=#0050ef;strokeColor=#001DBC;entryX=0.5;entryY=0;entryDx=0;entryDy=0;exitX=0.5;exitY=1;exitDx=0;exitDy=0;" edge="1" parent="1" source="Rsx-pt_HzqlwOgzSTHQl-21" target="Rsx-pt_HzqlwOgzSTHQl-20">
          <mxGeometry width="50" height="50" relative="1" as="geometry">
            <mxPoint x="730" y="720" as="sourcePoint" />
            <mxPoint x="650" y="720" as="targetPoint" />
          </mxGeometry>
        </mxCell>
        <mxCell id="Rsx-pt_HzqlwOgzSTHQl-31" value="" style="endArrow=none;html=1;rounded=0;strokeWidth=3;fillColor=#0050ef;strokeColor=#001DBC;entryX=0.5;entryY=0;entryDx=0;entryDy=0;exitX=0.5;exitY=1;exitDx=0;exitDy=0;" edge="1" parent="1" source="Rsx-pt_HzqlwOgzSTHQl-6" target="Rsx-pt_HzqlwOgzSTHQl-21">
          <mxGeometry width="50" height="50" relative="1" as="geometry">
            <mxPoint x="790" y="630" as="sourcePoint" />
            <mxPoint x="790" y="690" as="targetPoint" />
          </mxGeometry>
        </mxCell>
        <mxCell id="Rsx-pt_HzqlwOgzSTHQl-34" value="PC1&lt;div&gt;&lt;span style=&quot;font-size: 12pt; font-family: Calibri;&quot;&gt;192.168.1.102&lt;/span&gt;&lt;br&gt;&lt;/div&gt;" style="rounded=1;whiteSpace=wrap;html=1;fillColor=#1ba1e2;strokeColor=#006EAF;fontColor=#ffffff;" vertex="1" parent="1">
          <mxGeometry x="440" y="180" width="120" height="60" as="geometry" />
        </mxCell>
        <mxCell id="Rsx-pt_HzqlwOgzSTHQl-35" value="" style="endArrow=none;html=1;rounded=0;entryX=0.5;entryY=0;entryDx=0;entryDy=0;exitX=0.5;exitY=1;exitDx=0;exitDy=0;strokeWidth=3;fillColor=#0050ef;strokeColor=#001DBC;" edge="1" parent="1" source="Rsx-pt_HzqlwOgzSTHQl-34" target="Rsx-pt_HzqlwOgzSTHQl-7">
          <mxGeometry width="50" height="50" relative="1" as="geometry">
            <mxPoint x="570" y="340" as="sourcePoint" />
            <mxPoint x="790" y="430" as="targetPoint" />
          </mxGeometry>
        </mxCell>
        <mxCell id="Rsx-pt_HzqlwOgzSTHQl-36" value="&lt;b&gt;eth1 192.168.1.101&lt;/b&gt;" style="text;strokeColor=none;align=center;fillColor=none;html=1;verticalAlign=middle;whiteSpace=wrap;rounded=0;" vertex="1" parent="1">
          <mxGeometry x="370" y="270" width="150" height="30" as="geometry" />
        </mxCell>
        <mxCell id="Rsx-pt_HzqlwOgzSTHQl-37" value="&lt;b&gt;eth1&amp;nbsp;&lt;/b&gt;" style="text;strokeColor=none;align=center;fillColor=none;html=1;verticalAlign=middle;whiteSpace=wrap;rounded=0;" vertex="1" parent="1">
          <mxGeometry x="410" y="240" width="150" height="30" as="geometry" />
        </mxCell>
        <mxCell id="Rsx-pt_HzqlwOgzSTHQl-38" value="&lt;b&gt;osc1&lt;/b&gt;" style="text;strokeColor=none;align=center;fillColor=none;html=1;verticalAlign=middle;whiteSpace=wrap;rounded=0;" vertex="1" parent="1">
          <mxGeometry x="230" y="450" width="60" height="30" as="geometry" />
        </mxCell>
        <mxCell id="Rsx-pt_HzqlwOgzSTHQl-39" value="&lt;b&gt;osc1&lt;/b&gt;" style="text;strokeColor=none;align=center;fillColor=none;html=1;verticalAlign=middle;whiteSpace=wrap;rounded=0;" vertex="1" parent="1">
          <mxGeometry x="270" y="450" width="60" height="30" as="geometry" />
        </mxCell>
        <mxCell id="Rsx-pt_HzqlwOgzSTHQl-40" value="&lt;b&gt;osc2&lt;/b&gt;" style="text;strokeColor=none;align=center;fillColor=none;html=1;verticalAlign=middle;whiteSpace=wrap;rounded=0;" vertex="1" parent="1">
          <mxGeometry x="430" y="450" width="60" height="30" as="geometry" />
        </mxCell>
        <mxCell id="Rsx-pt_HzqlwOgzSTHQl-41" value="&lt;b&gt;osc2&lt;/b&gt;" style="text;strokeColor=none;align=center;fillColor=none;html=1;verticalAlign=middle;whiteSpace=wrap;rounded=0;" vertex="1" parent="1">
          <mxGeometry x="470" y="450" width="60" height="30" as="geometry" />
        </mxCell>
        <mxCell id="Rsx-pt_HzqlwOgzSTHQl-42" value="&lt;b&gt;osc3&lt;/b&gt;" style="text;strokeColor=none;align=center;fillColor=none;html=1;verticalAlign=middle;whiteSpace=wrap;rounded=0;" vertex="1" parent="1">
          <mxGeometry x="630" y="450" width="60" height="30" as="geometry" />
        </mxCell>
        <mxCell id="Rsx-pt_HzqlwOgzSTHQl-43" value="&lt;b&gt;osc3&lt;/b&gt;" style="text;strokeColor=none;align=center;fillColor=none;html=1;verticalAlign=middle;whiteSpace=wrap;rounded=0;" vertex="1" parent="1">
          <mxGeometry x="670" y="450" width="60" height="30" as="geometry" />
        </mxCell>
        <mxCell id="Rsx-pt_HzqlwOgzSTHQl-44" value="&lt;b&gt;osc4&lt;/b&gt;" style="text;strokeColor=none;align=center;fillColor=none;html=1;verticalAlign=middle;whiteSpace=wrap;rounded=0;" vertex="1" parent="1">
          <mxGeometry x="770" y="390" width="60" height="30" as="geometry" />
        </mxCell>
        <mxCell id="Rsx-pt_HzqlwOgzSTHQl-46" value="&lt;b&gt;osc4&lt;/b&gt;" style="text;strokeColor=none;align=center;fillColor=none;html=1;verticalAlign=middle;whiteSpace=wrap;rounded=0;" vertex="1" parent="1">
          <mxGeometry x="550" y="300" width="60" height="30" as="geometry" />
        </mxCell>
        <mxCell id="Rsx-pt_HzqlwOgzSTHQl-47" value="&lt;b&gt;osc5&lt;/b&gt;" style="text;strokeColor=none;align=center;fillColor=none;html=1;verticalAlign=middle;whiteSpace=wrap;rounded=0;" vertex="1" parent="1">
          <mxGeometry x="380" y="300" width="60" height="30" as="geometry" />
        </mxCell>
        <mxCell id="Rsx-pt_HzqlwOgzSTHQl-48" value="&lt;b&gt;osc5&lt;/b&gt;" style="text;strokeColor=none;align=center;fillColor=none;html=1;verticalAlign=middle;whiteSpace=wrap;rounded=0;" vertex="1" parent="1">
          <mxGeometry x="130" y="390" width="60" height="30" as="geometry" />
        </mxCell>
        <mxCell id="Rsx-pt_HzqlwOgzSTHQl-50" value="&lt;b&gt;osc6&lt;/b&gt;" style="text;strokeColor=none;align=center;fillColor=none;html=1;verticalAlign=middle;whiteSpace=wrap;rounded=0;" vertex="1" parent="1">
          <mxGeometry x="130" y="480" width="60" height="30" as="geometry" />
        </mxCell>
        <mxCell id="Rsx-pt_HzqlwOgzSTHQl-51" value="&lt;b&gt;osc6&lt;/b&gt;" style="text;strokeColor=none;align=center;fillColor=none;html=1;verticalAlign=middle;whiteSpace=wrap;rounded=0;" vertex="1" parent="1">
          <mxGeometry x="130" y="535" width="60" height="30" as="geometry" />
        </mxCell>
        <mxCell id="Rsx-pt_HzqlwOgzSTHQl-52" value="&lt;b&gt;osc7&lt;/b&gt;" style="text;strokeColor=none;align=center;fillColor=none;html=1;verticalAlign=middle;whiteSpace=wrap;rounded=0;" vertex="1" parent="1">
          <mxGeometry x="130" y="620" width="60" height="30" as="geometry" />
        </mxCell>
        <mxCell id="Rsx-pt_HzqlwOgzSTHQl-53" value="&lt;b&gt;osc7&lt;/b&gt;" style="text;strokeColor=none;align=center;fillColor=none;html=1;verticalAlign=middle;whiteSpace=wrap;rounded=0;" vertex="1" parent="1">
          <mxGeometry x="130" y="650" width="60" height="30" as="geometry" />
        </mxCell>
        <mxCell id="Rsx-pt_HzqlwOgzSTHQl-54" value="&lt;b&gt;osc8&lt;/b&gt;" style="text;strokeColor=none;align=center;fillColor=none;html=1;verticalAlign=middle;whiteSpace=wrap;rounded=0;" vertex="1" parent="1">
          <mxGeometry x="230" y="680" width="60" height="30" as="geometry" />
        </mxCell>
        <mxCell id="Rsx-pt_HzqlwOgzSTHQl-55" value="&lt;b&gt;osc8&lt;/b&gt;" style="text;strokeColor=none;align=center;fillColor=none;html=1;verticalAlign=middle;whiteSpace=wrap;rounded=0;" vertex="1" parent="1">
          <mxGeometry x="270" y="680" width="60" height="30" as="geometry" />
        </mxCell>
        <mxCell id="Rsx-pt_HzqlwOgzSTHQl-56" value="&lt;b&gt;osc9&lt;/b&gt;" style="text;strokeColor=none;align=center;fillColor=none;html=1;verticalAlign=middle;whiteSpace=wrap;rounded=0;" vertex="1" parent="1">
          <mxGeometry x="430" y="680" width="60" height="30" as="geometry" />
        </mxCell>
        <mxCell id="Rsx-pt_HzqlwOgzSTHQl-57" value="&lt;b&gt;osc9&lt;/b&gt;" style="text;strokeColor=none;align=center;fillColor=none;html=1;verticalAlign=middle;whiteSpace=wrap;rounded=0;" vertex="1" parent="1">
          <mxGeometry x="470" y="680" width="60" height="30" as="geometry" />
        </mxCell>
        <mxCell id="Rsx-pt_HzqlwOgzSTHQl-58" value="&lt;b&gt;osc10&lt;/b&gt;" style="text;strokeColor=none;align=center;fillColor=none;html=1;verticalAlign=middle;whiteSpace=wrap;rounded=0;" vertex="1" parent="1">
          <mxGeometry x="630" y="680" width="60" height="30" as="geometry" />
        </mxCell>
        <mxCell id="Rsx-pt_HzqlwOgzSTHQl-59" value="&lt;b&gt;osc10&lt;/b&gt;" style="text;strokeColor=none;align=center;fillColor=none;html=1;verticalAlign=middle;whiteSpace=wrap;rounded=0;" vertex="1" parent="1">
          <mxGeometry x="670" y="680" width="60" height="30" as="geometry" />
        </mxCell>
        <mxCell id="Rsx-pt_HzqlwOgzSTHQl-60" value="&lt;b&gt;osc11&lt;/b&gt;" style="text;strokeColor=none;align=center;fillColor=none;html=1;verticalAlign=middle;whiteSpace=wrap;rounded=0;" vertex="1" parent="1">
          <mxGeometry x="780" y="650" width="60" height="30" as="geometry" />
        </mxCell>
        <mxCell id="Rsx-pt_HzqlwOgzSTHQl-61" value="&lt;b&gt;osc11&lt;/b&gt;" style="text;strokeColor=none;align=center;fillColor=none;html=1;verticalAlign=middle;whiteSpace=wrap;rounded=0;" vertex="1" parent="1">
          <mxGeometry x="780" y="620" width="60" height="30" as="geometry" />
        </mxCell>
        <mxCell id="Rsx-pt_HzqlwOgzSTHQl-62" value="&lt;b&gt;osc12&lt;/b&gt;" style="text;strokeColor=none;align=center;fillColor=none;html=1;verticalAlign=middle;whiteSpace=wrap;rounded=0;" vertex="1" parent="1">
          <mxGeometry x="780" y="535" width="60" height="30" as="geometry" />
        </mxCell>
        <mxCell id="Rsx-pt_HzqlwOgzSTHQl-63" value="&lt;b&gt;osc12&lt;/b&gt;" style="text;strokeColor=none;align=center;fillColor=none;html=1;verticalAlign=middle;whiteSpace=wrap;rounded=0;" vertex="1" parent="1">
          <mxGeometry x="780" y="480" width="60" height="30" as="geometry" />
        </mxCell>
        <mxCell id="Rsx-pt_HzqlwOgzSTHQl-64" value="&lt;font style=&quot;font-size: 21px;&quot;&gt;&lt;b&gt;OSPF Area 1&lt;/b&gt;&lt;/font&gt;&lt;div&gt;&lt;font style=&quot;font-size: 21px;&quot;&gt;&lt;b&gt;Totally Stub&lt;/b&gt;&lt;/font&gt;&lt;/div&gt;" style="text;strokeColor=none;align=center;fillColor=none;html=1;verticalAlign=middle;whiteSpace=wrap;rounded=0;" vertex="1" parent="1">
          <mxGeometry x="380" y="600" width="190" height="60" as="geometry" />
        </mxCell>
        <mxCell id="Rsx-pt_HzqlwOgzSTHQl-66" value="&lt;font style=&quot;font-size: 21px;&quot;&gt;&lt;b&gt;OSPF Area 0&lt;/b&gt;&lt;/font&gt;" style="text;strokeColor=none;align=center;fillColor=none;html=1;verticalAlign=middle;whiteSpace=wrap;rounded=0;" vertex="1" parent="1">
          <mxGeometry x="70" y="300" width="190" height="60" as="geometry" />
        </mxCell>
        <mxCell id="Rsx-pt_HzqlwOgzSTHQl-67" value="&lt;font style=&quot;font-size: 21px;&quot;&gt;&lt;b&gt;ABR&lt;/b&gt;&lt;/font&gt;" style="text;strokeColor=none;align=center;fillColor=none;html=1;verticalAlign=middle;whiteSpace=wrap;rounded=0;" vertex="1" parent="1">
          <mxGeometry x="200" y="590" width="130" height="60" as="geometry" />
        </mxCell>
        <mxCell id="Rsx-pt_HzqlwOgzSTHQl-68" value="&lt;font style=&quot;font-size: 21px;&quot;&gt;&lt;b&gt;ABR&lt;/b&gt;&lt;/font&gt;" style="text;strokeColor=none;align=center;fillColor=none;html=1;verticalAlign=middle;whiteSpace=wrap;rounded=0;" vertex="1" parent="1">
          <mxGeometry x="620" y="590" width="130" height="60" as="geometry" />
        </mxCell>
      </root>
    </mxGraphModel>
  </diagram>
</mxfile>
